<svg width="100" height="101" viewBox="0 0 100 101" fill="none" xmlns="http://www.w3.org/2000/svg">
<g clip-path="url(#clip0_229_18635)">
<path d="M83.506 50.6457L78.9957 49.2281L82.9906 46.9085C83.7638 46.3931 84.1504 45.491 83.8926 44.5889L81.7019 37.759C81.4442 36.8569 80.5421 36.3414 79.64 36.3414L75.0008 36.8569L77.707 33.1198C78.2225 32.3466 78.2225 31.3156 77.5781 30.6713L72.8101 25.3878C72.1657 24.7434 71.1348 24.4857 70.3616 25.0012L66.3667 27.3208L67.3977 22.8104C67.6554 21.9083 67.1399 21.0063 66.2379 20.6197L59.6656 17.6557C58.7636 17.2691 57.7326 17.5269 57.2172 18.3001L54.511 22.0372L53.6089 17.5269C53.48 16.6248 52.578 15.9805 51.6759 15.9805H44.4593C43.5573 15.9805 42.6552 16.6248 42.5263 17.5269L41.6243 22.0372L38.9181 18.3001C38.4026 17.5269 37.3717 17.2691 36.4696 17.6557L29.8974 20.6197C28.9953 21.0063 28.6087 21.9083 28.7376 22.8104L29.7685 27.3208L25.7736 25.0012C25.0004 24.4857 23.9695 24.7434 23.3252 25.3878L18.5571 30.6713C17.9128 31.3156 17.9128 32.4754 18.4282 33.1198L21.1344 36.8569L16.4952 36.4703C15.5931 36.3414 14.6911 36.9858 14.4333 37.8879L12.2426 44.7178C11.9849 45.6199 12.3715 46.6508 13.1447 47.0374L17.1395 49.357L12.6292 50.6457C11.7271 50.9034 11.2117 51.8055 11.2117 52.7075L11.9849 59.7952C12.1137 60.6973 12.8869 61.4705 13.789 61.5994L18.4282 62.1148L14.9488 65.2076C14.3045 65.852 14.0467 66.8829 14.5622 67.6561L18.1705 73.8417C18.686 74.6149 19.588 75.0015 20.4901 74.7438L24.8716 73.3263L22.9386 77.5789C22.552 78.4809 22.8097 79.5119 23.5829 80.0273L29.3819 84.2799C30.1551 84.7954 31.186 84.7954 31.8304 84.1511L35.3098 81.0583V85.6975C35.3098 86.5995 35.9541 87.5016 36.8562 87.6305L43.815 89.1769C44.7171 89.4346 45.6191 88.9192 46.0057 88.0171L47.9388 83.7645L49.8718 88.0171C50.2584 88.7903 50.9027 89.1769 51.6759 89.1769C51.8048 89.1769 51.9336 89.1769 52.0625 89.1769L59.0213 87.6305C59.9234 87.3727 60.5677 86.5995 60.5677 85.6975V81.0583L64.0471 84.1511C64.6915 84.7954 65.8513 84.7954 66.4956 84.2799L72.2946 80.0273C73.0678 79.5119 73.3255 78.4809 72.9389 77.5789L71.0059 73.3263L75.3874 74.7438C76.2895 75.0015 77.3204 74.6149 77.707 73.8417L81.3153 67.6561C81.8308 66.8829 81.573 65.852 80.9287 65.2076L77.4493 62.1148L82.0885 61.5994C82.9906 61.4705 83.7638 60.8262 83.8926 59.7952L84.6658 52.7075C84.9236 51.8055 84.4081 51.0323 83.506 50.6457ZM48.0676 68.5582C39.1758 68.5582 31.9592 61.3416 31.9592 52.4498C31.9592 43.558 39.1758 36.3414 48.0676 36.3414C56.9594 36.3414 64.176 43.6869 64.176 52.5787C64.176 61.4705 56.9594 68.5582 48.0676 68.5582Z" fill="#00A1FF"/>
<path d="M39.9487 9.27842L35.5673 14.1754L41.4952 13.9176L48.0674 6.57221L40.7219 0L34.7941 0.257734L40.2065 5.15468C29.5105 6.95882 19.8455 12.2424 12.5001 20.2321C4.38148 29.1239 0 40.5931 0 52.5777H4.12374C4.12374 31.0569 19.2012 13.1444 39.9487 9.27842Z" fill="#00A1FF"/>
<path d="M14.6905 81.1857L21.1339 82.4744L17.9122 77.4486L8.24717 75.3867L6.1853 85.1806L9.40698 90.2064L10.9534 83.1187C17.7833 91.4951 27.3195 97.2941 37.8866 99.6137C49.6135 102.191 61.727 100.258 72.1652 94.2013L70.1033 90.593C51.5465 101.289 28.3504 97.1652 14.6905 81.1857Z" fill="#00A1FF"/>
<path d="M93.17 69.4606C97.036 59.409 97.2937 48.1976 93.9432 37.8882C90.3349 26.4191 82.6029 16.8829 72.1647 10.8262L70.1028 14.4344C88.6596 25.1304 96.6494 47.2955 89.5617 67.141L87.4998 60.9554L84.7936 66.239L87.8864 75.6462L97.2937 72.5534L99.9999 67.2699L93.17 69.4606Z" fill="#00A1FF"/>
</g>
<defs>
<clipPath id="clip0_229_18635">
<rect width="99.9999" height="100.727" fill="white"/>
</clipPath>
</defs>
</svg>
