<svg width="100" height="49" viewBox="0 0 100 49" fill="none" xmlns="http://www.w3.org/2000/svg">
<g clip-path="url(#clip0_229_18632)">
<path d="M100 4.66667H75.3333C73.2222 1.77778 69.7778 0 66.2222 0H46.2222C44.2222 0 42.3333 0.666665 40.7778 1.88889L35.7778 6H0V27.1111H19.1111H19.2222C18.6667 28.5556 19 30.3333 20.2222 31.4444L22.5556 33.5556L30.1111 40.4444L33.6667 43.7778L37.5556 47.3333C38.3333 48 39.2222 48.4444 40.2222 48.4444H40.3333C41.4444 48.4444 42.3333 48 43.1111 47.2222L45.1111 45.1111L49.3333 48C49.7778 48.3333 50.3333 48.4444 50.7778 48.4444C51.4444 48.4444 52.1111 48.2222 52.5556 47.6667C53.5556 46.6667 53.5556 45 52.5556 44L48 39.3333C47.7778 39.1111 47.6667 38.7778 47.6667 38.5556C47.6667 38.2222 47.7778 38 48 37.6667C48.4444 37.2222 49.2222 37.2222 49.6667 37.6667L57.3333 45.4444C57.8889 46 58.5556 46.2222 59.3333 46.2222C60 46.2222 60.6667 46 61.2222 45.4444C62.3333 44.4444 62.3333 42.6667 61.2222 41.5556L53.6667 33.7778C53.4444 33.7778 53.3333 33.4444 53.3333 33.1111C53.3333 32.7778 53.4444 32.5556 53.6667 32.2222C54.1111 31.7778 54.8889 31.7778 55.3333 32.2222L64.8889 42.1111C65.4444 42.6667 66.1111 42.8889 66.8889 42.8889C67.5555 42.8889 68.2222 42.6667 68.7778 42.1111C69.8889 41.1111 69.8889 39.3333 68.8889 38.2222L59.4444 28.4444C59.2222 28.2222 59.1111 27.8889 59.1111 27.6667C59.1111 27.3333 59.2222 27.1111 59.4444 26.7778C59.8889 26.3333 60.6667 26.3333 61.1111 26.7778L72.5556 38.5556C73.5556 39.6667 75.3333 39.6667 76.4444 38.6667C77.3333 37.8889 77.5556 36.5556 77.1111 35.4444L88 31.6667H100V28.5556H87.4444L75.1111 33.1111L72.2222 30.1111L54.7778 12.2222L47.7778 10.3333C49.1111 9.44444 49.8889 7.88889 49.8889 6.22222C49.8889 5 49.4444 4 48.7778 3.11111H66C70.4444 3.11111 74.1111 6.77778 74.1111 11.2222C74.1111 13.4444 73.1111 15.5556 71.5556 17.1111V20.2222H92.8889V17.1111H75.7778C76.7778 15.3333 77.4444 13.3333 77.4444 11.2222C77.4444 10 77.2222 8.88889 76.8889 7.77778H100V4.66667ZM43 5.88889C43.1111 4.88889 44 4.22222 44.8889 4.22222H45C46 4.33333 46.7778 5.11111 46.7778 6.22222C46.7778 7.33333 45.8889 8.22222 44.7778 8.22222C43.6667 8.22222 42.7778 7.33333 42.7778 6.22222C42.8889 6.11111 43 6 43 5.88889ZM38.3333 7.88889L39.7778 6.66667C39.7778 7 39.8889 7.22222 39.8889 7.55556C40.4444 9.44444 42 10.8889 44 11.2222L37.6667 16.4444C36.5556 17.3333 35.2222 17.7778 33.8889 17.7778C32.2222 17.7778 30.5556 17 29.4444 15.7778L29 15.3333L38.3333 7.88889ZM22.2222 27.8889L25.4444 24.4444C25.7778 24.1111 26.3333 23.7778 26.7778 23.7778C26.7778 23.7778 26.7778 23.7778 26.8889 23.7778C27.4444 23.7778 27.8889 24 28.2222 24.3333C29 25.1111 29.1111 26.3333 28.3333 27.1111L24.5556 31.2222L22.2222 29.1111C21.8889 28.8889 21.8889 28.3333 22.2222 27.8889ZM32.5556 27.2222C33.3333 26.4444 34.5556 26.3333 35.3333 27.1111C36.1111 27.8889 36.2222 29.1111 35.4444 29.8889L29.6667 36.1111L26.7778 33.4444L32.5556 27.2222ZM37 32.8889C37.7778 32.1111 39 32 39.7778 32.7778C40.5556 33.5556 40.6667 34.7778 39.8889 35.5556L38.7778 36.7778L35 40.8889L32.1111 38.2222L37 32.8889ZM40.7778 45.1111C40.6667 45.3333 40.4444 45.3333 40.2222 45.3333C40 45.3333 39.7778 45.2222 39.5556 45.1111L37.2222 43L41 38.8889C41.7778 38.1111 43 38 43.7778 38.7778C44.5556 39.5556 44.6667 40.7778 43.8889 41.5556L40.7778 45.1111Z" fill="#00A1FF"/>
</g>
<defs>
<clipPath id="clip0_229_18632">
<rect width="100" height="48.4444" fill="white"/>
</clipPath>
</defs>
</svg>
