<svg width="100" height="100" viewBox="0 0 100 100" fill="none" xmlns="http://www.w3.org/2000/svg">
<g clip-path="url(#clip0_231_18648)">
<path d="M43.8311 43.832V35.7695C40.2269 37.3529 37.3519 40.2279 35.7686 43.832H43.8311Z" fill="#00A1FF"/>
<path d="M43.8311 64.2266V56.1641H35.7686C37.3519 59.7682 40.2269 62.6432 43.8311 64.2266Z" fill="#00A1FF"/>
<path d="M56.1648 56.1641V64.2266C59.769 62.6432 62.644 59.7682 64.2273 56.1641H56.1648Z" fill="#00A1FF"/>
<path d="M56.1648 35.7695V43.832H64.2273C62.644 40.2279 59.769 37.3529 56.1648 35.7695Z" fill="#00A1FF"/>
<path d="M43.8306 17.5814V7.81055C25.2265 10.498 10.4973 25.2272 7.80981 43.8314H17.5806C20.0806 30.5605 30.5598 20.0814 43.8306 17.5814Z" fill="#00A1FF"/>
<path d="M82.4356 43.8314H92.1856C89.4981 25.2272 74.7898 10.498 56.1648 7.81055V17.5814C69.4356 20.0814 79.9148 30.5605 82.4356 43.8314Z" fill="#00A1FF"/>
<path d="M68.6648 43.8301H78.1856C75.7898 32.8717 67.1231 24.2259 56.1648 21.8301V31.3301C62.0606 33.2676 66.7273 37.9342 68.6648 43.8301Z" fill="#00A1FF"/>
<path d="M43.8311 21.8301C32.8727 24.2259 24.2269 32.8717 21.8311 43.8301H31.3311C33.2686 37.9342 37.9352 33.2676 43.8311 31.3301V21.8301Z" fill="#00A1FF"/>
<path d="M56.1648 82.4349V92.1849C74.7898 89.4974 89.4981 74.7891 92.1856 56.1641H82.4356C79.9148 69.4349 69.4356 79.9141 56.1648 82.4349Z" fill="#00A1FF"/>
<path d="M56.1648 78.1849C67.1231 75.7891 75.7898 67.1224 78.1856 56.1641H68.6648C66.7273 62.0599 62.0606 66.7266 56.1648 68.6641V78.1849Z" fill="#00A1FF"/>
<path d="M31.3311 56.1641H21.8311C24.2269 67.1224 32.8727 75.7891 43.8311 78.1849V68.6641C37.9352 66.7266 33.2686 62.0599 31.3311 56.1641Z" fill="#00A1FF"/>
<path d="M17.5806 56.1641H7.80981C10.4973 74.7891 25.2265 89.4974 43.8306 92.1849V82.4349C30.5598 79.9141 20.0806 69.4349 17.5806 56.1641Z" fill="#00A1FF"/>
<path d="M98 48H52V2C52 0.89375 51.1062 0 50 0C48.8937 0 48 0.89375 48 2V48H2C0.89375 48 0 48.8937 0 50C0 51.1062 0.89375 52 2 52H48V98C48 99.1062 48.8937 100 50 100C51.1062 100 52 99.1062 52 98V52H98C99.1062 52 100 51.1062 100 50C100 48.8937 99.1062 48 98 48Z" fill="#00A1FF"/>
</g>
<defs>
<clipPath id="clip0_231_18648">
<rect width="100" height="100" fill="white"/>
</clipPath>
</defs>
</svg>
