<svg width="90" height="74" viewBox="0 0 90 74" fill="none" xmlns="http://www.w3.org/2000/svg">
<g clip-path="url(#clip0_231_18655)">
<path d="M37.9767 42.574V21.429H31.0037C30.2192 21.429 29.5825 20.7235 29.5825 19.8544C29.5825 19.4093 29.7492 19.0076 30.0167 18.7212L43.9346 1.03525C44.4494 0.384351 45.3447 0.3174 45.9322 0.887714L46.0654 1.03525L60.0616 18.8216C60.5764 19.4725 60.516 20.4644 59.9285 21.0347C59.6599 21.2951 59.3275 21.4228 58.9963 21.4228L52.0233 21.429V42.574H71.1092V34.8475C71.1092 33.9784 71.7459 33.2729 72.5304 33.2729C72.9322 33.2729 73.2947 33.4576 73.5532 33.7552L89.5169 49.1748C90.1044 49.7451 90.1648 50.7369 89.65 51.3878L89.5169 51.5354L73.4626 67.043C72.8751 67.6133 71.9798 67.5463 71.465 66.8954C71.23 66.5979 71.1148 66.2297 71.1148 65.8627L71.1092 58.1361H55.328C54.4193 58.1361 53.5934 58.549 52.9622 59.2458C52.3691 59.9339 52.0233 60.8216 52.0233 61.7986V72.2738C52.0233 73.1429 51.3866 73.8483 50.6021 73.8483H39.3979C38.6134 73.8483 37.9767 73.1429 37.9767 72.2738V61.7986C37.9767 60.7881 37.6063 59.8719 37.0109 59.2123C36.4066 58.549 35.5807 58.1361 34.672 58.1361H18.8908V65.8627C18.8908 66.7318 18.2541 67.4372 17.4696 67.4372C17.0678 67.4372 16.7053 67.2525 16.4468 66.9549L0.483128 51.5354C-0.104388 50.9651 -0.164818 49.9732 0.349958 49.3223L0.483128 49.1748L16.5374 33.6672C17.1249 33.0969 18.0202 33.1638 18.535 33.8147C18.77 34.1123 18.8852 34.4805 18.8852 34.8475L18.8908 42.574H37.9767Z" fill="#00A1FF"/>
</g>
<defs>
<clipPath id="clip0_231_18655">
<rect width="90" height="73.3483" fill="white" transform="translate(0 0.5)"/>
</clipPath>
</defs>
</svg>
